# xmcd CD database file
# Copyright (C) 1993-1996 Ti Kan
#
# Track frame offsets:
#	150
#	10820
#	23067
#	37790
#	49075
#	67047
#	82005
#	96105
#	108830
#	123277
#	137937
#	157722
#	174387
#	185970
#
# Disc length: 2689 seconds
#
# Revision: 1
# Processed by: cddbd v1.4b41PL1 Copyright (c) Steve Scherf et al.
# Submitted via: CDValet v3.31 - Copyright (c) 1997 Greg Leichner
#
DISCID=ae0a7f0e
DTITLE=William Bell - The Best of William Bell
DYEAR=1900
DGENRE=
TTITLE0=I Forgot To Be Your Lover
TTITLE1=Private Numnber (with Judy Clay )
TTITLE2=Born Under A Bad Sign
TTITLE3=My Kind of Girl
TTITLE4=Lonely Soldier
TTITLE5=Save Us
TTITLE6=A Penny For Your Thoughts 
TTITLE7=My Baby Specializes
TTITLE8=My Whole World Is Falling Down
TTITLE9=All For The Love Of A Woman
TTITLE10='Till My Back Ain't Got No Bone
TTITLE11=I'll Be Home
TTITLE12=A Smile Can't Hide
TTITLE13=Gettin' What You Want (Losin What You Got)
EXTD=
EXTT0=
EXTT1=
EXTT2=
EXTT3=
EXTT4=
EXTT5=
EXTT6=
EXTT7=
EXTT8=
EXTT9=
EXTT10=
EXTT11=
EXTT12=
EXTT13=
PLAYORDER=
